<svg width="126" height="126" viewBox="0 0 126 126" fill="none" xmlns="http://www.w3.org/2000/svg">
<g id="cookies-svgrepo-com 1" clip-path="url(#clip0_1_3)">
<g id="cookie">
<path id="Vector" d="M118.034 61.1198L112.044 62.3178C110.051 62.7165 108.047 61.6797 107.222 59.8219L100.805 45.3846C100.262 44.1623 99.1864 43.2586 97.889 42.934L94.5463 42.0985C92.612 41.6149 91.2553 39.8773 91.2553 37.8834V14.7171C91.2553 13.6346 90.8509 12.5909 90.1218 11.7906L82.0514 2.93467C74.7751 0.630494 66.9316 -0.39744 58.777 0.139537C27.4358 2.20426 2.04652 27.6996 0.134122 59.0502C-2.09721 95.634 26.9118 126 63.0135 126C97.4477 126 125.412 98.3698 125.986 64.0727L120.83 61.4944C119.966 61.062 118.982 60.9304 118.034 61.1198Z" fill="#FFE6A1"/>
<g id="Group">
<path id="Vector_2" d="M82.5652 106.448C82.1828 106.448 81.806 106.426 81.4253 106.419C79.0382 109.097 75.5727 110.793 71.7031 110.793C66.0036 110.793 61.1713 107.129 59.4001 102.032C51.6041 98.9472 44.5723 94.357 38.6626 88.6112C37.7685 88.8807 36.84 89.0687 35.8581 89.0687C30.459 89.0687 26.0822 84.6919 26.0822 79.2929C26.0822 77.4073 26.6414 75.6623 27.5662 74.169C27.5 74.0506 27.4294 73.9357 27.3637 73.8168C20.5825 73.3571 15.2204 67.7253 15.2204 60.8275C15.2204 56.7623 17.0824 53.1336 19.9988 50.7431C19.7224 48.3483 19.5652 45.9174 19.5652 43.4481C19.5652 31.0575 23.1567 19.5125 29.3344 9.76918C11.7175 20.9389 0.0135345 40.5966 0.0135345 63C0.0135345 97.794 28.2196 126 63.0135 126C85.4169 126 105.074 114.296 116.244 96.6792C106.501 102.857 94.956 106.448 82.5652 106.448Z" fill="#FFD796"/>
<path id="Vector_3" d="M48.8929 52.1379C51.8924 52.1379 54.324 49.7064 54.324 46.7069C54.324 43.7074 51.8924 41.2758 48.8929 41.2758C45.8934 41.2758 43.4619 43.7074 43.4619 46.7069C43.4619 49.7064 45.8934 52.1379 48.8929 52.1379Z" fill="#FFD796"/>
<path id="Vector_4" d="M106.462 87.9827C109.461 87.9827 111.893 85.5511 111.893 82.5517C111.893 79.5522 109.461 77.1206 106.462 77.1206C103.462 77.1206 101.031 79.5522 101.031 82.5517C101.031 85.5511 103.462 87.9827 106.462 87.9827Z" fill="#FFD796"/>
<path id="Vector_5" d="M57.0394 87.9827C59.139 87.9827 60.841 86.2806 60.841 84.1811C60.841 82.0815 59.139 80.3794 57.0394 80.3794C54.9398 80.3794 53.2377 82.0815 53.2377 84.1811C53.2377 86.2806 54.9398 87.9827 57.0394 87.9827Z" fill="#FFD796"/>
<path id="Vector_6" d="M86.3671 53.2239C88.4667 53.2239 90.1688 51.5219 90.1688 49.4223C90.1688 47.3227 88.4667 45.6206 86.3671 45.6206C84.2675 45.6206 82.5654 47.3227 82.5654 49.4223C82.5654 51.5219 84.2675 53.2239 86.3671 53.2239Z" fill="#FFD796"/>
<path id="Vector_7" d="M71.1602 19.5517C73.2598 19.5517 74.9619 17.8496 74.9619 15.75C74.9619 13.6504 73.2598 11.9483 71.1602 11.9483C69.0606 11.9483 67.3586 13.6504 67.3586 15.75C67.3586 17.8496 69.0606 19.5517 71.1602 19.5517Z" fill="#FFD796"/>
</g>
<g id="Group_2">
<path id="Vector_8" d="M59.8522 55.9583L57.3408 60.1441C55.8397 62.6459 57.1824 65.8869 60.0127 66.5944L67.488 68.4633C69.8161 69.0453 72.1751 67.63 72.7569 65.302L73.6121 61.8813C73.7851 61.1892 73.7851 60.4657 73.6121 59.7737L72.7079 56.1569C72.1456 53.9068 69.915 52.4953 67.6408 52.95L62.7259 53.9329C61.5254 54.1734 60.4822 54.9087 59.8522 55.9583Z" fill="#B97850"/>
<path id="Vector_9" d="M72.3914 82.8531L69.7723 87.2183C68.4702 89.3886 69.2912 92.2081 71.5547 93.3399L79.8929 97.509C82.3789 98.7522 85.3768 97.3731 86.0511 94.6767L86.91 91.2412L87.9138 87.2252C88.5386 84.7259 86.8637 82.2347 84.313 81.8702L76.7311 80.7869C75.001 80.5399 73.2907 81.3542 72.3914 82.8531Z" fill="#B97850"/>
<path id="Vector_10" d="M26.6798 56.9358L23.4833 62.2634C22.4575 63.9731 22.727 66.1613 24.1366 67.5712L29.1673 72.6021C30.9985 74.4333 34.0146 74.2662 35.6324 72.244L39.9452 66.8528C40.7923 65.7941 41.0964 64.4005 40.7674 63.0849L39.7838 59.1504C39.3765 57.5212 38.0673 56.273 36.4209 55.9435L31.2574 54.9109C29.4569 54.5506 27.6245 55.3613 26.6798 56.9358Z" fill="#B97850"/>
<path id="Vector_11" d="M44.3685 21.6609L41.9036 25.7692C40.4736 28.1526 41.6184 31.2475 44.2553 32.1266L49.6041 33.9095C51.1653 34.4297 52.8865 34.0234 54.0503 32.8599L56.9294 29.9809C58.0085 28.9017 58.4423 27.3354 58.0722 25.8549L57.3192 22.8429C56.8356 20.9084 55.0977 19.5514 53.1038 19.5514H48.0939C46.5681 19.5517 45.1538 20.3524 44.3685 21.6609Z" fill="#B97850"/>
<path id="Vector_12" d="M96.8418 55.2407L94.327 57.7555C92.6304 59.4521 92.6304 62.2031 94.327 63.9L95.5577 65.1307C96.8802 66.4532 98.9002 66.781 100.573 65.9445L107.689 62.3865C109.511 61.4757 110.455 59.4223 109.962 57.4466L109.639 56.1574C109.077 53.9073 106.846 52.4957 104.572 52.9505L99.0623 54.0525C98.2209 54.2204 97.4484 54.634 96.8418 55.2407Z" fill="#B97850"/>
<path id="Vector_13" d="M80.6865 24.2294L77.8011 28.0768C76.7411 29.4899 76.6425 31.4045 77.5513 32.9192L80.2212 37.3688C81.4974 39.4961 84.2928 40.1246 86.3568 38.7487L91.7782 35.1343C93.8538 33.7508 94.3405 30.9076 92.844 28.9123L89.8968 24.9827C89.3665 24.2757 88.6334 23.7471 87.7949 23.4677L85.5363 22.7147C83.7619 22.1228 81.8085 22.7332 80.6865 24.2294Z" fill="#B97850"/>
<path id="Vector_14" d="M43.5067 92.8721L40.6697 96.4183C38.8484 98.6949 39.7419 102.084 42.449 103.167L46.2597 104.691C47.2958 105.105 48.4512 105.105 49.487 104.691L53.7636 102.98C56.3259 101.955 57.296 98.8322 55.7653 96.5359L55.0308 95.4342C54.6112 94.8049 54.0351 94.2965 53.3588 93.9581L48.843 91.7002C47.0098 90.784 44.7864 91.2725 43.5067 92.8721Z" fill="#B97850"/>
</g>
<g id="Group_3">
<path id="Vector_15" d="M34.5585 72.086L29.5278 67.0554C28.1182 65.6458 27.8485 63.4572 28.8744 61.7479L32.0709 56.4202C32.3436 55.9659 32.7039 55.597 33.1023 55.28L31.2576 54.9114C29.4572 54.5514 27.6245 55.362 26.6798 56.9363L23.4833 62.2639C22.4575 63.9736 22.727 66.1618 24.1366 67.5717L29.1673 72.6023C30.8646 74.2997 33.5662 74.2588 35.2421 72.6365C35.0019 72.4773 34.7706 72.2984 34.5585 72.086Z" fill="#A5694B"/>
<path id="Vector_16" d="M53.9556 32.3628L48.6067 30.5801C45.9701 29.7011 44.8247 26.6062 46.255 24.2228L48.7199 20.1145C48.8452 19.9053 49.0108 19.7333 49.1661 19.5517H48.0936C46.5676 19.5517 45.1533 20.3524 44.368 21.6612L41.9031 25.7692C40.4728 28.1526 41.6177 31.2475 44.2548 32.1266L49.6036 33.9095C51.1649 34.4297 52.886 34.0234 54.0498 32.8599L54.4546 32.4551C54.2883 32.4206 54.1195 32.4174 53.9556 32.3628Z" fill="#A5694B"/>
<path id="Vector_17" d="M71.6103 67.2141L64.135 65.3453C61.3044 64.6375 59.9617 61.3967 61.4632 58.8949L63.9745 54.7091C64.2735 54.2108 64.6707 53.7902 65.1287 53.4528L62.7259 53.9334C61.5257 54.1734 60.482 54.9089 59.8522 55.9588L57.3408 60.1446C55.8397 62.6464 57.1824 65.8874 60.0127 66.5949L67.488 68.4638C69.0628 68.8575 70.6378 68.323 71.681 67.2247C71.6573 67.2188 71.634 67.22 71.6103 67.2141Z" fill="#A5694B"/>
<path id="Vector_18" d="M84.2795 36.9931L81.6096 32.5434C80.7008 31.0287 80.7995 29.1146 81.8594 27.701L84.7448 23.8539C85.0608 23.4323 85.4531 23.102 85.8784 22.8281L85.536 22.7142C83.7617 22.1228 81.8082 22.7332 80.686 24.2292L77.8008 28.0763C76.7409 29.4897 76.6422 31.404 77.551 32.9187L80.2209 37.3683C81.493 39.4884 84.2731 40.1172 86.3349 38.7595C85.5087 38.4157 84.7773 37.8226 84.2795 36.9931Z" fill="#A5694B"/>
<path id="Vector_19" d="M99.0446 64.8413C97.3478 63.1445 97.3478 60.3936 99.0446 58.6968L101.559 56.182C102.166 55.5756 102.938 55.1619 103.78 54.9938L108.417 54.0663C107.425 53.1233 106.008 52.6628 104.572 52.9503L99.0621 54.0523C98.2209 54.2206 97.4484 54.634 96.8418 55.2404L94.327 57.7552C92.6304 59.4521 92.6304 62.2029 94.327 63.8997L95.5577 65.1304C96.7983 66.371 98.644 66.6961 100.249 66.0466L99.0446 64.8413Z" fill="#A5694B"/>
<path id="Vector_20" d="M76.937 92.9755C74.6735 91.8437 73.8523 89.0242 75.1546 86.8539L77.7737 82.4889C78.1173 81.9167 78.6028 81.4829 79.1383 81.1312L76.7315 80.7874C75.001 80.5401 73.2909 81.3542 72.3917 82.8531L69.7725 87.2183C68.4704 89.3886 69.2914 92.2081 71.555 93.3399L79.8931 97.509C81.555 98.3401 83.4305 97.9813 84.7025 96.8586L76.937 92.9755Z" fill="#A5694B"/>
<path id="Vector_21" d="M50.6045 103.965L46.7937 102.44C44.087 101.358 43.1934 97.9687 45.0145 95.6921L47.8515 92.1459C48.0316 91.9207 48.2339 91.7238 48.4475 91.5437C46.6988 90.8741 44.6965 91.3845 43.5067 92.8721L40.6697 96.4183C38.8484 98.6949 39.7419 102.084 42.449 103.167L46.2597 104.691C47.2958 105.105 48.4512 105.105 49.487 104.691L51.0071 104.083C50.8725 104.044 50.7354 104.017 50.6045 103.965Z" fill="#A5694B"/>
</g>
<path id="Vector_22" d="M17.3902 89.0667C17.0646 89.0667 16.7324 88.9927 16.4208 88.8376C15.3474 88.3009 14.9123 86.9964 15.4493 85.9229L17.6218 81.5781C18.1588 80.5047 19.4601 80.074 20.5365 80.6065C21.61 81.1435 22.0451 82.4478 21.5081 83.5213L19.3356 87.866C18.9549 88.6275 18.188 89.0667 17.3902 89.0667Z" fill="#C98850"/>
<path id="Vector_23" d="M56.4962 117.31H54.3237C53.124 117.31 52.1512 116.339 52.1512 115.138C52.1512 113.937 53.124 112.965 54.3237 112.965H56.4962C57.6959 112.965 58.6687 113.937 58.6687 115.138C58.6687 116.339 57.6959 117.31 56.4962 117.31Z" fill="#925F4A"/>
<path id="Vector_24" d="M47.8045 76.0343C47.4789 76.0343 47.1466 75.9603 46.8351 75.8052C45.7616 75.2683 45.3265 73.9637 45.8635 72.8905L48.036 68.5457C48.5718 67.4745 49.8734 67.0416 50.9508 67.5741C52.0242 68.1111 52.4593 69.4154 51.9223 70.4889L49.7498 74.8337C49.3691 75.5953 48.602 76.0343 47.8045 76.0343Z" fill="#C98850"/>
<g id="Group_4">
<path id="Vector_25" d="M34.7701 41.2758C34.4445 41.2758 34.1123 41.2018 33.8007 41.0467L29.4559 38.8742C28.3825 38.3372 27.9474 37.0329 28.4844 35.9595C29.0201 34.8882 30.3227 34.4531 31.3991 34.9879L35.7439 37.1602C36.8173 37.6971 37.2524 39.0014 36.7155 40.0749C36.3348 40.8366 35.5677 41.2758 34.7701 41.2758Z" fill="#925F4A"/>
<path id="Vector_26" d="M60.8413 10.8618H56.4965C55.2968 10.8618 54.324 9.89026 54.324 8.68932C54.324 7.48838 55.2968 6.51681 56.4965 6.51681H60.8413C62.041 6.51681 63.0138 7.48838 63.0138 8.68932C63.0138 9.89026 62.041 10.8618 60.8413 10.8618Z" fill="#925F4A"/>
</g>
<path id="Vector_27" d="M69.5331 43.4481C68.7352 43.4481 67.9684 43.0091 67.5877 42.2474L65.4152 37.9026C64.8782 36.8292 65.3133 35.5244 66.3867 34.9879C67.4624 34.4531 68.766 34.8882 69.3015 35.9595L71.474 40.3042C72.011 41.3777 71.5759 42.6825 70.5024 43.219C70.1904 43.374 69.8586 43.4481 69.5331 43.4481Z" fill="#C98850"/>
<g id="Group_5">
<path id="Vector_28" d="M9.91413 54.0857C9.62202 53.9418 9.35698 53.7284 9.14558 53.4516C8.4196 52.4957 8.60639 51.1331 9.56246 50.4074L13.4316 47.47C14.3866 46.7438 15.7483 46.9323 16.4757 47.8869C17.2017 48.8427 17.0149 50.2053 16.0588 50.9311L12.19 53.8682C11.5115 54.383 10.6295 54.4381 9.91413 54.0857Z" fill="#925F4A"/>
<path id="Vector_29" d="M91.255 78.2069C90.6991 78.2069 90.1432 77.9947 89.7191 77.5705L85.3744 73.2257C84.5258 72.3772 84.5258 71.0022 85.3744 70.1537C86.2229 69.3052 87.5978 69.3052 88.4463 70.1537L92.7911 74.4985C93.6396 75.347 93.6396 76.7219 92.7911 77.5705C92.3666 77.9947 91.8107 78.2069 91.255 78.2069Z" fill="#925F4A"/>
</g>
<path id="Vector_30" d="M95.5998 99.931C95.0439 99.931 94.4879 99.7189 94.0639 99.2947C93.2154 98.4461 93.2154 97.0712 94.0639 96.2227L96.2364 94.0501C97.085 93.2016 98.4599 93.2016 99.3084 94.0501C100.157 94.8987 100.157 96.2736 99.3084 97.1221L97.1359 99.2947C96.7114 99.7189 96.1557 99.931 95.5998 99.931Z" fill="#C98850"/>
</g>
<g id="crumbs">
<g id="Group_6">
<path id="Vector_31" d="M99.9446 8.68957V14.1706C99.9446 15.7077 101.497 16.7585 102.924 16.1876L109.441 13.5807C110.266 13.2507 110.807 12.4519 110.807 11.5637V8.68957C110.807 7.48986 109.834 6.51706 108.634 6.51706H102.117C100.917 6.51706 99.9446 7.48986 99.9446 8.68957Z" fill="#FFE6A1"/>
<path id="Vector_32" d="M104.589 25.8162L103.203 35.5207C102.877 37.8035 104.391 39.9435 106.652 40.3956L110.63 41.1912C112.357 41.5367 114.121 40.8058 115.098 39.3408L116.594 37.0964C117.369 35.9336 117.538 34.4691 117.047 33.1609L112.515 21.075C111.951 19.5718 110.023 19.1542 108.888 20.2894L105.818 23.3585C105.153 24.0232 104.722 24.8857 104.589 25.8162Z" fill="#FFE6A1"/>
</g>
<g id="Group_7">
<path id="Vector_33" d="M115.48 37.3322L111.502 36.5366C109.241 36.0842 107.727 33.9442 108.053 31.6617L109.439 21.9575C109.563 21.092 109.966 20.3015 110.553 19.6582C109.964 19.6284 109.358 19.8182 108.888 20.2887L105.818 23.358C105.153 24.0227 104.722 24.8852 104.589 25.8157L103.203 35.5199C102.877 37.803 104.391 39.9427 106.652 40.3948L110.631 41.1904C112.357 41.5355 114.121 40.8051 115.098 39.3401L116.407 37.3767C116.099 37.3829 115.791 37.3944 115.48 37.3322Z" fill="#FFD796"/>
<path id="Vector_34" d="M107.269 11.8425C105.841 12.4132 104.289 11.3624 104.289 9.82554V6.51706H102.117C100.917 6.51706 99.9443 7.48986 99.9443 8.68957V14.1706C99.9443 15.7077 101.496 16.7585 102.924 16.1876L109.441 13.5807C110.266 13.2507 110.806 12.4521 110.806 11.5637V10.4275L107.269 11.8425Z" fill="#FFD796"/>
<path id="Vector_35" d="M116.235 47.3787L114.95 49.9469C114.645 50.5585 114.645 51.2783 114.95 51.8898L115.536 53.0622C116.121 54.2309 117.597 54.6232 118.684 53.8985L122.187 51.5638C122.791 51.1607 123.154 50.4824 123.154 49.7562V47.4156C123.154 45.9329 121.701 44.8858 120.295 45.3548L117.49 46.2895C116.944 46.4714 116.492 46.8631 116.235 47.3787Z" fill="#FFD796"/>
</g>
</g>
</g>
<defs>
<clipPath id="clip0_1_3">
<rect width="126" height="126" fill="white"/>
</clipPath>
</defs>
</svg>
