<svg xmlns="http://www.w3.org/2000/svg" viewBox="0 0 1475 1223">
  <path d="M647.036 250.461L531.948 115.608C451.48 21.3209 337.009 -21.3419 217.482 11.4927C99.922 43.7867 -16.0854 201.911 2.31138 322.43L58 687.25L92.0663 910.421C124.032 1119.83 325.754 1259.08 532.896 1214.74L541 1213L1326.03 1037.35C1381.45 1024.95 1424.52 981.352 1436.25 925.793L1470.68 762.652C1478.08 727.578 1475.57 691.136 1463.42 657.409L1453.38 629.532C1431.77 569.511 1373.46 530.667 1309.75 533.839L1081.99 545.178C1004.94 549.014 933.006 506.595 899.071 437.311L892.815 424.538C871.101 380.206 833.226 345.88 786.979 328.618L726.351 305.988C695.624 294.519 668.327 275.409 647.036 250.461Z" fill="#D4E2FF"/>
</svg>