<?xml version="1.0" standalone="no"?>
<!DOCTYPE svg PUBLIC "-//W3C//DTD SVG 20010904//EN"
 "http://www.w3.org/TR/2001/REC-SVG-20010904/DTD/svg10.dtd">
<svg version="1.0" xmlns="http://www.w3.org/2000/svg"
 width="150" height="30" viewBox="0 0 800.000000 300.000000"
 preserveAspectRatio="xMidYMid meet">

<g transform="translate(0.000000,300.000000) scale(0.100000,-0.100000)"
fill="#000000" stroke="none">
<path d="M1506 2739 c-565 -65 -1006 -484 -1098 -1043 -15 -91 -15 -291 0
-382 85 -516 475 -923 980 -1023 53 -10 130 -22 170 -26 l72 -6 0 1245 0 1246
-27 -1 c-16 -1 -59 -5 -97 -10z"/>
<path d="M2483 2096 c-175 -57 -265 -202 -265 -424 1 -216 92 -359 261 -412
148 -47 319 -8 413 94 149 159 144 501 -9 654 -70 69 -138 96 -258 99 -65 2
-115 -2 -142 -11z m201 -128 c53 -16 109 -73 130 -134 27 -75 32 -196 12 -274
-33 -126 -100 -184 -216 -184 -159 1 -239 116 -228 330 7 141 55 228 144 259
49 18 105 19 158 3z"/>
<path d="M6735 2085 c-33 -32 -33 -84 -1 -122 20 -23 32 -28 71 -28 39 0 51 5
71 28 55 64 15 147 -71 147 -35 0 -52 -6 -70 -25z"/>
<path d="M3405 1854 c-22 -8 -57 -28 -77 -44 l-37 -30 -7 35 -6 35 -74 0 -74
0 0 -420 0 -420 80 0 80 0 0 156 0 156 36 -32 c47 -41 77 -52 145 -52 98 0
166 49 216 157 25 54 28 71 28 166 0 102 -1 109 -35 175 -28 54 -45 74 -83 98
-57 35 -132 43 -192 20z m100 -147 c51 -51 66 -125 44 -227 -20 -94 -99 -141
-176 -104 -58 29 -75 69 -80 183 -4 106 -2 112 61 155 57 38 108 36 151 -7z"/>
<path d="M4019 1863 c-15 -2 -51 -19 -80 -36 -102 -61 -154 -200 -129 -344 25
-145 103 -223 242 -242 71 -10 167 1 227 25 l39 15 -15 47 c-9 26 -19 50 -22
55 -4 4 -29 0 -55 -9 -116 -40 -233 6 -261 104 l-6 22 190 0 190 0 7 46 c33
220 -103 351 -327 317z m133 -124 c25 -13 48 -68 48 -114 l0 -35 -120 0 c-114
0 -120 1 -120 20 0 35 26 85 59 113 35 29 95 36 133 16z"/>
<path d="M4765 1856 c-21 -8 -58 -29 -82 -45 l-42 -30 -7 34 -6 35 -74 0 -74
0 0 -300 0 -300 80 0 80 0 0 204 0 204 36 32 c66 58 134 67 175 24 24 -25 24
-29 27 -245 l3 -219 81 0 80 0 -4 233 c-3 220 -4 234 -27 280 -43 89 -149 128
-246 93z"/>
<path d="M5667 1860 c-140 -36 -221 -147 -221 -305 1 -141 49 -230 155 -283
58 -30 75 -34 146 -34 78 0 186 22 198 42 3 5 -2 34 -11 64 l-17 55 -31 -17
c-22 -11 -56 -17 -113 -17 -77 0 -83 2 -112 29 -39 38 -55 85 -54 168 0 122
54 182 162 181 31 -1 75 -8 98 -16 l42 -16 15 46 c9 26 16 51 16 55 0 5 -21
18 -46 29 -52 24 -170 33 -227 19z"/>
<path d="M6215 1861 c-59 -17 -86 -31 -130 -72 -62 -57 -88 -128 -88 -241 0
-79 3 -93 34 -155 55 -109 131 -154 263 -155 113 0 183 31 243 110 44 57 58
110 58 213 0 76 -4 93 -33 151 -50 102 -122 147 -246 154 -39 2 -84 -1 -101
-5z m146 -132 c62 -24 95 -158 66 -260 -21 -72 -52 -101 -115 -107 -100 -9
-154 54 -155 182 -1 82 14 134 47 165 42 40 92 46 157 20z"/>
<path d="M7335 1856 c-21 -8 -58 -29 -82 -45 l-42 -30 -7 34 -6 35 -74 0 -74
0 0 -300 0 -300 80 0 80 0 0 204 0 204 36 32 c66 58 134 67 175 24 24 -25 24
-29 27 -245 l3 -219 81 0 80 0 -4 233 c-3 220 -4 234 -27 280 -43 89 -149 128
-246 93z"/>
<path d="M6725 1848 c-3 -7 -4 -144 -3 -303 l3 -290 80 0 80 0 0 300 0 300
-78 3 c-56 2 -79 -1 -82 -10z"/>
</g>
</svg>
