<svg width="385" height="417" viewBox="0 0 385 417" fill="none" xmlns="http://www.w3.org/2000/svg">
<path d="M183 416.259C283.843 416.259 365.592 406.051 365.592 393.459C365.592 380.867 283.843 370.659 183 370.659C82.1572 370.659 0.40799 380.867 0.40799 393.459C0.40799 406.051 82.1572 416.259 183 416.259Z" fill="#212552"/>
<path d="M142.524 377.409V370.041C142.524 366.727 139.838 364.041 136.524 364.041H70.524C67.21 364.041 64.524 366.727 64.524 370.041V392.041C64.524 395.355 67.21 398.041 70.524 398.041H114.421C119.204 398.041 123.792 396.141 127.174 392.758L142.524 377.409Z" fill="#92D6E9"/>
<path opacity="0.3" d="M136.524 364.041H70.524C67.21 364.041 64.524 366.727 64.524 370.041V390.459H129.474L142.524 377.409V370.041C142.524 366.727 139.838 364.041 136.524 364.041Z" fill="#0A1E2B" stroke="#0A1E2B" stroke-width="6" stroke-miterlimit="10" stroke-linecap="round" stroke-linejoin="round"/>
<path d="M223.476 377.409V370.041C223.476 366.727 226.162 364.041 229.476 364.041H295.476C298.79 364.041 301.476 366.727 301.476 370.041V392.041C301.476 395.355 298.79 398.041 295.476 398.041H251.579C246.796 398.041 242.208 396.141 238.826 392.758L223.476 377.409Z" fill="#92D6E9"/>
<path opacity="0.3" d="M295.476 364.041H229.476C226.162 364.041 223.476 366.727 223.476 370.041V377.409L236.526 390.459H301.476V370.041C301.476 366.727 298.79 364.041 295.476 364.041Z" fill="#0A1E2B" stroke="#0A1E2B" stroke-width="6" stroke-miterlimit="10" stroke-linecap="round" stroke-linejoin="round"/>
<path d="M142.524 377.409V370.041C142.524 366.727 139.838 364.041 136.524 364.041H70.524C67.21 364.041 64.524 366.727 64.524 370.041V392.041C64.524 395.355 67.21 398.041 70.524 398.041H114.421C119.204 398.041 123.792 396.141 127.174 392.758L142.524 377.409ZM223.476 377.409V370.041C223.476 366.727 226.162 364.041 229.476 364.041H295.476C298.79 364.041 301.476 366.727 301.476 370.041V392.041C301.476 395.355 298.79 398.041 295.476 398.041H251.579C246.796 398.041 242.208 396.141 238.826 392.758L223.476 377.409Z" stroke="#212552" stroke-width="6" stroke-miterlimit="10" stroke-linecap="round" stroke-linejoin="round"/>
<path d="M313 377.459H53C30.909 377.459 13 359.55 13 337.459V77.459C13 55.368 30.909 37.459 53 37.459H313C335.091 37.459 353 55.368 353 77.459V337.459C353 359.55 335.091 377.459 313 377.459Z" fill="#CBEDF9"/>
<path d="M313 37.459H53C30.909 37.459 13 55.368 13 77.459V100.459C13 78.368 30.909 60.459 53 60.459H313C335.091 60.459 353 78.368 353 100.459V77.459C353 55.367 335.091 37.459 313 37.459Z" fill="#E8F9FF"/>
<path opacity="0.23" d="M251.667 37.125H277.333L260 73.459L251.667 37.125Z" fill="#0A1E2B" stroke="#0A1E2B" stroke-width="6" stroke-miterlimit="10" stroke-linecap="round" stroke-linejoin="round"/>
<path d="M313 354.459H53C30.909 354.459 13 336.55 13 314.459V337.459C13 359.55 30.909 377.459 53 377.459H313C335.091 377.459 353 359.55 353 337.459V314.459C353 336.55 335.091 354.459 313 354.459Z" fill="#92D6E9"/>
<path d="M313 377.459H53C30.909 377.459 13 359.55 13 337.459V77.459C13 55.368 30.909 37.459 53 37.459H313C335.091 37.459 353 55.368 353 77.459V337.459C353 359.55 335.091 377.459 313 377.459Z" stroke="#212552" stroke-width="6" stroke-miterlimit="10" stroke-linecap="round" stroke-linejoin="round"/>
<path d="M301 73.459H65C56.163 73.459 49 80.622 49 89.459V97.459C49 88.622 56.163 84.459 65 84.459H301C309.837 84.459 317 88.622 317 97.459V89.459C317 80.622 309.837 73.459 301 73.459Z" fill="#E8F9FF"/>
<path d="M301 328.459H65C56.163 328.459 49 321.296 49 312.459V325.459C49 334.296 56.163 341.459 65 341.459H301C309.837 341.459 317 334.296 317 325.459V312.459C317 321.295 309.837 328.459 301 328.459Z" fill="#92D6E9"/>
<path d="M65 341.459C56.163 341.459 49 334.296 49 325.459V89.459C49 80.622 56.163 73.459 65 73.459H301C309.837 73.459 317 80.622 317 89.459V325.459C317 334.296 309.837 341.459 301 341.459H65Z" stroke="#212552" stroke-width="6" stroke-miterlimit="10" stroke-linecap="round" stroke-linejoin="round"/>
<path opacity="0.23" d="M288.335 302.55H286.335C284.126 302.55 282.335 300.759 282.335 298.55V146.55C282.335 144.341 284.126 142.55 286.335 142.55H288.335C290.544 142.55 292.335 144.341 292.335 146.55V298.55C292.335 300.759 290.544 302.55 288.335 302.55Z" fill="#0A1E2B" stroke="#0A1E2B" stroke-width="6" stroke-miterlimit="10" stroke-linecap="round" stroke-linejoin="round"/>
<path d="M288.335 282.55H286.335C284.126 282.55 282.335 280.759 282.335 278.55V126.55C282.335 124.341 284.126 122.55 286.335 122.55H288.335C290.544 122.55 292.335 124.341 292.335 126.55V278.55C292.335 280.759 290.544 282.55 288.335 282.55Z" fill="#92D6E9"/>
<path d="M288.335 282.55H286.335C284.126 282.55 282.335 280.759 282.335 278.55V126.55C282.335 124.341 284.126 122.55 286.335 122.55H288.335C290.544 122.55 292.335 124.341 292.335 126.55V278.55C292.335 280.759 290.544 282.55 288.335 282.55Z" stroke="#212552" stroke-width="6" stroke-miterlimit="10" stroke-linecap="round" stroke-linejoin="round"/>
<path opacity="0.23" d="M183 280.459C218.899 280.459 248 251.358 248 215.459C248 179.561 218.899 150.459 183 150.459C147.101 150.459 118 179.561 118 215.459C118 251.358 147.101 280.459 183 280.459Z" fill="#0A1E2B" stroke="#0A1E2B" stroke-width="6" stroke-miterlimit="10" stroke-linecap="round" stroke-linejoin="round"/>
<path d="M183 272.459C218.899 272.459 248 243.358 248 207.459C248 171.561 218.899 142.459 183 142.459C147.101 142.459 118 171.561 118 207.459C118 243.358 147.101 272.459 183 272.459Z" fill="#CBEDF9"/>
<path d="M183 272.459C218.899 272.459 248 243.358 248 207.459C248 171.561 218.899 142.459 183 142.459C147.101 142.459 118 171.561 118 207.459C118 243.358 147.101 272.459 183 272.459Z" stroke="#212552" stroke-width="6" stroke-miterlimit="10" stroke-linecap="round" stroke-linejoin="round"/>
<path d="M183 261.459C212.823 261.459 237 237.282 237 207.459C237 177.636 212.823 153.459 183 153.459C153.177 153.459 129 177.636 129 207.459C129 237.282 153.177 261.459 183 261.459Z" fill="#92D6E9"/>
<path d="M183 166.459V248.459" stroke="#212552" stroke-width="10" stroke-miterlimit="10" stroke-linecap="round" stroke-linejoin="round"/>
<path d="M224 207.459H142" stroke="#212552" stroke-width="10" stroke-miterlimit="10" stroke-linecap="round" stroke-linejoin="round"/>
<path d="M212 178.459L154 236.459" stroke="#212552" stroke-width="10" stroke-miterlimit="10" stroke-linecap="round" stroke-linejoin="round"/>
<path d="M212 236.459L154 178.459" stroke="#212552" stroke-width="10" stroke-miterlimit="10" stroke-linecap="round" stroke-linejoin="round"/>
<path opacity="0.3" d="M183 255.209C169.193 255.209 158 244.016 158 230.209V205.209H208V230.209C208 244.016 196.807 255.209 183 255.209Z" fill="#0A1E2B" stroke="#0A1E2B" stroke-width="6" stroke-miterlimit="10" stroke-linecap="round" stroke-linejoin="round"/>
<path opacity="0.23" d="M49 169.959C44.582 169.959 41 166.377 41 161.959V137.959C41 133.541 44.582 129.959 49 129.959C53.418 129.959 57 133.541 57 137.959V161.959C57 166.377 53.418 169.959 49 169.959ZM49 300.459C44.582 300.459 41 296.877 41 292.459V268.459C41 264.041 44.582 260.459 49 260.459C53.418 260.459 57 264.041 57 268.459V292.459C57 296.877 53.418 300.459 49 300.459Z" fill="#0A1E2B" stroke="#0A1E2B" stroke-width="6" stroke-miterlimit="10" stroke-linecap="round" stroke-linejoin="round"/>
<path d="M49 161.959C44.582 161.959 41 158.377 41 153.959V129.959C41 125.541 44.582 121.959 49 121.959C53.418 121.959 57 125.541 57 129.959V153.959C57 158.377 53.418 161.959 49 161.959ZM49 292.959C44.582 292.959 41 289.377 41 284.959V260.959C41 256.541 44.582 252.959 49 252.959C53.418 252.959 57 256.541 57 260.959V284.959C57 289.377 53.418 292.959 49 292.959Z" fill="#92D6E9"/>
<path d="M49 161.959C44.582 161.959 41 158.377 41 153.959V129.959C41 125.541 44.582 121.959 49 121.959C53.418 121.959 57 125.541 57 129.959V153.959C57 158.377 53.418 161.959 49 161.959ZM49 292.959C44.582 292.959 41 289.377 41 284.959V260.959C41 256.541 44.582 252.959 49 252.959C53.418 252.959 57 256.541 57 260.959V284.959C57 289.377 53.418 292.959 49 292.959Z" stroke="#212552" stroke-width="6" stroke-miterlimit="10" stroke-linecap="round" stroke-linejoin="round"/>
<path d="M183 232.459C196.807 232.459 208 221.266 208 207.459C208 193.652 196.807 182.459 183 182.459C169.193 182.459 158 193.652 158 207.459C158 221.266 169.193 232.459 183 232.459Z" fill="#FFEA9E"/>
<path d="M183 218.704C189.21 218.704 194.245 213.669 194.245 207.459C194.245 201.249 189.21 196.214 183 196.214C176.79 196.214 171.755 201.249 171.755 207.459C171.755 213.669 176.79 218.704 183 218.704Z" fill="#EDC75D"/>
<path d="M183 230.459C195.703 230.459 206 220.162 206 207.459C206 194.756 195.703 184.459 183 184.459C170.297 184.459 160 194.756 160 207.459C160 220.162 170.297 230.459 183 230.459Z" stroke="#212552" stroke-width="8" stroke-miterlimit="10" stroke-linecap="round" stroke-linejoin="round"/>
<path d="M262 73.459H193.5V21.209C193.5 17.205 196.746 13.959 200.75 13.959H254.75C258.754 13.959 262 17.205 262 21.209V73.459Z" fill="#5F9E71" stroke="#212552" stroke-width="6" stroke-miterlimit="10" stroke-linecap="round" stroke-linejoin="round"/>
<path d="M248.5 26.459H233.875C233.875 29.842 231.133 32.584 227.75 32.584C224.367 32.584 221.625 29.842 221.625 26.459H207C205.251 26.459 203.833 27.877 203.833 29.626V73.459H251.666V29.626C251.667 27.877 250.249 26.459 248.5 26.459Z" fill="#90C49E"/>
<path d="M227.75 77.157C236.034 77.157 242.75 70.7327 242.75 62.808C242.75 54.8833 236.034 48.459 227.75 48.459C219.466 48.459 212.75 54.8833 212.75 62.808C212.75 70.7327 219.466 77.157 227.75 77.157Z" fill="white"/>
<path d="M262 73.459H193.5V21.209C193.5 17.205 196.746 13.959 200.75 13.959H254.75C258.754 13.959 262 17.205 262 21.209V73.459Z" stroke="#212552" stroke-width="6" stroke-miterlimit="10" stroke-linecap="round" stroke-linejoin="round"/>
<path d="M381.037 55.292L360.78 52.499" stroke="#212552" stroke-width="6" stroke-miterlimit="10" stroke-linecap="round" stroke-linejoin="round"/>
<path d="M332.896 23.64L329.89 3.414" stroke="#212552" stroke-width="6" stroke-miterlimit="10" stroke-linecap="round" stroke-linejoin="round"/>
<path d="M352.934 30.87L367.393 16.41" stroke="#212552" stroke-width="6" stroke-miterlimit="10" stroke-linecap="round" stroke-linejoin="round"/>
</svg>
