<svg width="385" height="417" viewBox="0 0 385 417" fill="none" xmlns="http://www.w3.org/2000/svg">
<path d="M183 416.259C283.843 416.259 365.592 406.051 365.592 393.459C365.592 380.867 283.843 370.659 183 370.659C82.1572 370.659 0.40799 380.867 0.40799 393.459C0.40799 406.051 82.1572 416.259 183 416.259Z" fill="#212552"/>
<path d="M142.524 377.409V370.041C142.524 366.727 139.838 364.041 136.524 364.041H70.524C67.21 364.041 64.524 366.727 64.524 370.041V392.041C64.524 395.355 67.21 398.041 70.524 398.041H114.421C119.204 398.041 123.792 396.141 127.174 392.758L142.524 377.409Z" fill="#92D6E9"/>
<path opacity="0.3" d="M136.524 364.041H70.524C67.21 364.041 64.524 366.727 64.524 370.041V390.459H129.474L142.524 377.409V370.041C142.524 366.727 139.838 364.041 136.524 364.041Z" fill="#0A1E2B" stroke="#0A1E2B" stroke-width="6" stroke-miterlimit="10" stroke-linecap="round" stroke-linejoin="round"/>
<path d="M223.476 377.409V370.041C223.476 366.727 226.162 364.041 229.476 364.041H295.476C298.79 364.041 301.476 366.727 301.476 370.041V392.041C301.476 395.355 298.79 398.041 295.476 398.041H251.579C246.796 398.041 242.208 396.141 238.826 392.758L223.476 377.409Z" fill="#92D6E9"/>
<path opacity="0.3" d="M295.476 364.041H229.476C226.162 364.041 223.476 366.727 223.476 370.041V377.409L236.526 390.459H301.476V370.041C301.476 366.727 298.79 364.041 295.476 364.041Z" fill="#0A1E2B" stroke="#0A1E2B" stroke-width="6" stroke-miterlimit="10" stroke-linecap="round" stroke-linejoin="round"/>
<path d="M142.524 377.409V370.041C142.524 366.727 139.838 364.041 136.524 364.041H70.524C67.21 364.041 64.524 366.727 64.524 370.041V392.041C64.524 395.355 67.21 398.041 70.524 398.041H114.421C119.204 398.041 123.792 396.141 127.174 392.758L142.524 377.409ZM223.476 377.409V370.041C223.476 366.727 226.162 364.041 229.476 364.041H295.476C298.79 364.041 301.476 366.727 301.476 370.041V392.041C301.476 395.355 298.79 398.041 295.476 398.041H251.579C246.796 398.041 242.208 396.141 238.826 392.758L223.476 377.409Z" stroke="#212552" stroke-width="6" stroke-miterlimit="10" stroke-linecap="round" stroke-linejoin="round"/>
<path d="M313 377.459H53C30.909 377.459 13 359.55 13 337.459V77.459C13 55.368 30.909 37.459 53 37.459H313C335.091 37.459 353 55.368 353 77.459V337.459C353 359.55 335.091 377.459 313 377.459Z" fill="#CBEDF9"/>
<path d="M313 37.459H53C30.909 37.459 13 55.368 13 77.459V100.459C13 78.368 30.909 60.459 53 60.459H313C335.091 60.459 353 78.368 353 100.459V77.459C353 55.367 335.091 37.459 313 37.459Z" fill="#E8F9FF"/>
<path d="M313 354.459H53C30.909 354.459 13 336.55 13 314.459V337.459C13 359.55 30.909 377.459 53 377.459H313C335.091 377.459 353 359.55 353 337.459V314.459C353 336.55 335.091 354.459 313 354.459Z" fill="#92D6E9"/>
<path opacity="0.23" d="M51.711 336.573L88.143 377.459H156.05L200 377.25L191.333 312.096L51.711 336.573Z" fill="#0A1E2B" stroke="#0A1E2B" stroke-width="6" stroke-miterlimit="10" stroke-linecap="round" stroke-linejoin="round"/>
<path d="M65 341.459C56.163 341.459 49 334.296 49 325.459V89.459C49 80.622 56.163 73.459 65 73.459H301C309.837 73.459 317 80.622 317 89.459V325.459C317 334.296 309.837 341.459 301 341.459H65Z" fill="#92D6E9"/>
<path d="M317 89.46V325.46C317 334.3 309.84 341.46 301 341.46H65C56.16 341.46 49 334.3 49 325.46V89.46C49 80.62 56.16 73.46 65 73.46H192.38C196.84 75.58 200 80.24 200 85.35V95.67H282.63C285.24 95.67 287.6 96.73 289.32 98.44L310.04 76.26C314.24 79.14 317 83.97 317 89.46Z" stroke="#212552" stroke-width="6" stroke-miterlimit="10" stroke-linecap="round" stroke-linejoin="round"/>
<path opacity="0.23" d="M273.947 299.946L328.5 330.5L339.5 296.259L310.04 276.144L273.947 299.946Z" fill="#0A1E2B" stroke="#0A1E2B" stroke-width="6" stroke-miterlimit="10" stroke-linecap="round" stroke-linejoin="round"/>
<path d="M310.04 76.26L289.32 98.44C287.6 96.73 285.24 95.67 282.63 95.67H200V85.35C200 80.24 196.84 75.58 192.38 73.46H301C304.35 73.46 307.47 74.49 310.04 76.26Z" fill="#53ADBC"/>
<path d="M289.32 98.44C291.03 100.15 292.09 102.52 292.09 105.13V304.02C292.09 309.79 287.41 314.46 281.65 314.46H200M310.04 76.26L289.32 98.44C287.6 96.73 285.24 95.67 282.63 95.67H200V85.35C200 80.24 196.84 75.58 192.38 73.46H301C304.35 73.46 307.47 74.49 310.04 76.26Z" stroke="#212552" stroke-width="6" stroke-miterlimit="10" stroke-linecap="round" stroke-linejoin="round"/>
<path d="M345.017 270.698L326.892 223.819C325.849 221.121 322.817 219.78 320.119 220.823L275.798 237.959L231.477 255.095C228.779 256.138 227.438 259.17 228.481 261.868L246.606 308.747C247.649 311.445 250.681 312.786 253.379 311.743L297.7 294.607L342.021 277.471C344.718 276.428 346.06 273.396 345.017 270.698Z" fill="#5F9E71" stroke="#212552" stroke-width="6" stroke-miterlimit="10" stroke-linecap="round" stroke-linejoin="round"/>
<path d="M345.017 270.698L326.892 223.819C325.849 221.121 322.817 219.78 320.119 220.823L275.798 237.959L231.477 255.095C228.779 256.138 227.438 259.17 228.481 261.868L246.606 308.747C247.649 311.445 250.681 312.786 253.379 311.743L297.7 294.607L342.021 277.471C344.718 276.428 346.06 273.396 345.017 270.698Z" stroke="#212552" stroke-width="6" stroke-miterlimit="10" stroke-linecap="round" stroke-linejoin="round"/>
<path d="M332.251 268.415L327.575 256.321C324.778 257.403 321.633 256.012 320.551 253.214C319.469 250.417 320.86 247.272 323.658 246.19L318.982 234.096C318.423 232.65 316.797 231.931 315.351 232.49L279.929 246.185L279.102 246.505L243.68 260.2C242.234 260.759 241.515 262.385 242.074 263.831L246.75 275.925C249.547 274.843 252.692 276.234 253.774 279.032C254.856 281.829 253.465 284.974 250.667 286.056L255.343 298.15C255.902 299.596 257.528 300.315 258.974 299.756L294.396 286.061L295.223 285.741L330.645 272.046C332.092 271.487 332.811 269.862 332.251 268.415Z" fill="#90C49E"/>
<path d="M291.528 278.689C298.082 276.155 301.247 268.547 298.599 261.696C295.95 254.846 288.489 251.347 281.936 253.881C275.382 256.415 272.216 264.023 274.865 270.873C277.514 277.724 284.974 281.223 291.528 278.689Z" fill="white"/>
<path opacity="0.23" d="M264.891 276.144L300.381 228.455L298.993 181.967L264.891 276.144Z" fill="#0A1E2B" stroke="#0A1E2B" stroke-width="6" stroke-miterlimit="10" stroke-linecap="round" stroke-linejoin="round"/>
<path d="M242.817 280.021H226.917L233.083 302.417L236.04 309.911L242.817 280.021Z" fill="#A78B75"/>
<path d="M221.922 314.459H188.615C182.401 314.459 178.648 309.319 180.078 303.594L184.984 283.956C185.825 280.589 189.853 278.059 194.042 278.059H216.495C220.684 278.059 224.712 280.59 225.553 283.956L230.459 303.594C231.888 309.318 228.135 314.459 221.922 314.459Z" fill="#FFE07D"/>
<path d="M230.458 303.594L225.552 283.956C224.711 280.589 220.683 278.059 216.494 278.059H194.041C189.852 278.059 185.824 280.59 184.983 283.956L184.864 284.431C185.729 284.209 186.63 284.083 187.541 284.083H209.994C214.183 284.083 218.211 286.614 219.052 289.98L223.958 309.618C224.365 311.247 224.339 312.822 223.97 314.252C228.93 313.255 231.723 308.656 230.458 303.594Z" fill="#FFE8A6"/>
<path d="M221.922 314.459H188.615C182.401 314.459 178.648 309.319 180.078 303.594L184.984 283.956C185.825 280.589 189.853 278.059 194.042 278.059H216.495C220.684 278.059 224.712 280.59 225.553 283.956L230.459 303.594C231.888 309.318 228.135 314.459 221.922 314.459Z" stroke="#212552" stroke-width="6" stroke-miterlimit="10" stroke-linecap="round" stroke-linejoin="round"/>
<path d="M196.428 278.058H163.121C156.907 278.058 153.154 272.918 154.584 267.193L159.49 247.555C160.331 244.188 164.359 241.658 168.548 241.658H191.001C195.19 241.658 199.218 244.189 200.059 247.555L204.965 267.193C206.395 272.918 202.642 278.058 196.428 278.058Z" fill="#FFE07D"/>
<path d="M196.428 278.058H163.121C156.907 278.058 153.154 272.918 154.584 267.193L159.49 247.555C160.331 244.188 164.359 241.658 168.548 241.658H191.001C195.19 241.658 199.218 244.189 200.059 247.555L204.965 267.193C206.395 272.918 202.642 278.058 196.428 278.058Z" stroke="#212552" stroke-width="6" stroke-miterlimit="10" stroke-linecap="round" stroke-linejoin="round"/>
<path d="M295.919 178.881L248.832 161.303C246.122 160.291 243.106 161.668 242.095 164.377L225.476 208.894L208.857 253.411C207.846 256.12 209.222 259.137 211.931 260.148L259.018 277.726C261.727 278.738 264.744 277.361 265.755 274.652L282.374 230.135L298.993 185.618C300.004 182.909 298.628 179.892 295.919 178.881Z" fill="#5F9E71" stroke="#212552" stroke-width="6" stroke-miterlimit="10" stroke-linecap="round" stroke-linejoin="round"/>
<path d="M285.735 186.909L273.587 182.374C272.538 185.184 269.41 186.611 266.6 185.562C263.79 184.513 262.363 181.385 263.412 178.575L251.264 174.04C249.811 173.498 248.194 174.236 247.652 175.688L234.37 211.267L234.06 212.098L220.778 247.677C220.236 249.13 220.974 250.747 222.426 251.289L234.574 255.824C235.623 253.014 238.751 251.587 241.561 252.636C244.371 253.685 245.798 256.813 244.749 259.623L256.897 264.158C258.35 264.7 259.967 263.962 260.509 262.51L273.791 226.931L274.101 226.1L287.383 190.521C287.925 189.068 287.187 187.451 285.735 186.909Z" fill="#90C49E"/>
<path d="M266.369 224.199C268.826 217.616 265.24 210.197 258.359 207.629C251.478 205.06 243.908 208.314 241.451 214.897C238.993 221.48 242.579 228.899 249.46 231.468C256.341 234.036 263.912 230.782 266.369 224.199Z" fill="white"/>
<path d="M295.919 178.881L248.832 161.303C246.122 160.291 243.106 161.668 242.095 164.377L225.476 208.894L208.857 253.411C207.846 256.12 209.222 259.137 211.931 260.148L259.018 277.726C261.727 278.738 264.744 277.361 265.755 274.652L282.374 230.135L298.993 185.618C300.004 182.909 298.628 179.892 295.919 178.881Z" stroke="#212552" stroke-width="6" stroke-miterlimit="10" stroke-linecap="round" stroke-linejoin="round"/>
<path d="M220.776 244.611L201.333 243.679L207 263.5L214 274.5L220.776 244.611Z" fill="#A78B75"/>
<path d="M250.909 278.058H217.602C211.388 278.058 207.635 272.918 209.065 267.193L213.971 247.555C214.812 244.188 218.84 241.658 223.029 241.658H245.482C249.671 241.658 253.699 244.189 254.54 247.555L259.446 267.193C260.876 272.918 257.123 278.058 250.909 278.058Z" fill="#FFE07D"/>
<path d="M259.446 267.194L254.54 247.556C253.699 244.189 249.671 241.659 245.482 241.659H223.029C218.84 241.659 214.812 244.19 213.971 247.556L213.676 248.738C214.833 248.319 216.088 248.083 217.36 248.083H239.813C244.002 248.083 248.03 250.614 248.871 253.981L253.777 273.619C254.123 275.002 254.159 276.349 253.938 277.6C258.277 276.226 260.625 271.912 259.446 267.194Z" fill="#FFE8A6"/>
<path d="M250.909 278.058H217.602C211.388 278.058 207.635 272.918 209.065 267.193L213.971 247.555C214.812 244.188 218.84 241.658 223.029 241.658H245.482C249.671 241.658 253.699 244.189 254.54 247.555L259.446 267.193C260.876 272.918 257.123 278.058 250.909 278.058Z" stroke="#212552" stroke-width="6" stroke-miterlimit="10" stroke-linecap="round" stroke-linejoin="round"/>
<path d="M225.178 241.658H191.871C185.657 241.658 181.904 236.518 183.334 230.793L188.24 211.155C189.081 207.788 193.109 205.258 197.298 205.258H219.751C223.94 205.258 227.968 207.789 228.809 211.155L233.715 230.793C235.145 236.518 231.392 241.658 225.178 241.658Z" fill="#FFE07D"/>
<path d="M233.715 230.793L228.809 211.155C227.968 207.788 223.94 205.258 219.751 205.258H197.298C193.109 205.258 189.081 207.789 188.24 211.155L188.19 211.355C189.215 211.035 190.305 210.856 191.408 210.856H213.861C218.05 210.856 222.078 213.387 222.919 216.753L227.825 236.391C228.26 238.132 228.21 239.817 227.762 241.322C232.382 240.109 234.933 235.669 233.715 230.793Z" fill="#FFE8A6"/>
<path d="M225.178 241.658H191.871C185.657 241.658 181.904 236.518 183.334 230.793L188.24 211.155C189.081 207.788 193.109 205.258 197.298 205.258H219.751C223.94 205.258 227.968 207.789 228.809 211.155L233.715 230.793C235.145 236.518 231.392 241.658 225.178 241.658Z" stroke="#212552" stroke-width="6" stroke-miterlimit="10" stroke-linecap="round" stroke-linejoin="round"/>
<path opacity="0.23" d="M301 73.459H138.773V73.46L143.5 219.099H231.445L298.993 181.967L317 115.167V89.459C317 80.622 309.837 73.459 301 73.459Z" fill="#0A1E2B" stroke="#0A1E2B" stroke-width="6" stroke-miterlimit="10" stroke-linecap="round" stroke-linejoin="round"/>
<path d="M277.909 314.459H244.602C238.388 314.459 234.635 309.319 236.065 303.594L240.971 283.956C241.812 280.589 245.84 278.059 250.029 278.059H272.482C276.671 278.059 280.699 280.59 281.54 283.956L286.446 303.594C287.876 309.318 284.123 314.459 277.909 314.459Z" fill="#FFE07D"/>
<path d="M286.446 303.594L281.54 283.956C280.699 280.589 276.671 278.059 272.482 278.059H250.029C245.84 278.059 241.812 280.59 240.971 283.956L240.549 285.646C241.65 285.272 242.831 285.059 244.029 285.059H266.482C270.671 285.059 274.699 287.59 275.54 290.956L280.446 310.594C280.746 311.795 280.806 312.965 280.675 314.072C285.18 312.792 287.648 308.406 286.446 303.594Z" fill="#FFE8A6"/>
<path d="M277.909 314.459H244.602C238.388 314.459 234.635 309.319 236.065 303.594L240.971 283.956C241.812 280.589 245.84 278.059 250.029 278.059H272.482C276.671 278.059 280.699 280.59 281.54 283.956L286.446 303.594C287.876 309.318 284.123 314.459 277.909 314.459Z" stroke="#212552" stroke-width="6" stroke-miterlimit="10" stroke-linecap="round" stroke-linejoin="round"/>
<path d="M61.95 328.531V86.303C61.95 77.233 67.014 68.868 73.364 67.597L154.282 51.406C162.343 49.793 169.001 56.958 169.001 67.441V347.395C169.001 357.877 162.343 365.043 154.282 363.43L73.364 347.239C67.013 345.966 61.95 337.601 61.95 328.531Z" fill="#92D6E9"/>
<path d="M61.95 328.531V86.303C61.95 77.233 67.014 68.868 73.364 67.597L154.282 51.406C162.343 49.793 169.001 56.958 169.001 67.441V347.395C169.001 357.877 162.343 365.043 154.282 363.43L73.364 347.239C67.013 345.966 61.95 337.601 61.95 328.531Z" stroke="#212552" stroke-width="6" stroke-miterlimit="10" stroke-linecap="round" stroke-linejoin="round"/>
<path d="M49 325.459V89.459C49 80.622 53.938 72.306 60.148 70.856L140.994 51.976C149.226 50.054 156.05 56.96 156.05 67.445V347.475C156.05 357.96 149.226 364.866 140.994 362.944L60.148 344.064C53.938 342.612 49 334.295 49 325.459Z" fill="#CBEDF9"/>
<path d="M140.994 346.942L60.148 328.062C53.938 326.612 49 318.295 49 309.459V325.459C49 334.296 53.938 342.612 60.148 344.062L140.994 362.942C149.226 364.864 156.05 357.958 156.05 347.473V331.473C156.05 341.959 149.226 348.865 140.994 346.942Z" fill="#92D6E9"/>
<path d="M140.994 51.975L60.148 70.855C53.938 72.305 49 80.622 49 89.458V101.458C49 92.621 53.938 84.305 60.148 82.855L140.994 63.975C149.226 62.053 156.05 68.959 156.05 79.444V67.444C156.05 56.959 149.226 50.053 140.994 51.975Z" fill="#E8F9FF"/>
<path d="M143.5 136.333C146.111 136.333 148.227 131.595 148.227 125.75C148.227 119.905 146.111 115.167 143.5 115.167C140.889 115.167 138.773 119.905 138.773 125.75C138.773 131.595 140.889 136.333 143.5 136.333Z" fill="#212552"/>
<path d="M49 325.459V89.459C49 80.622 53.938 72.306 60.148 70.856L140.994 51.976C149.226 50.054 156.05 56.96 156.05 67.445V347.475C156.05 357.96 149.226 364.866 140.994 362.944L60.148 344.064C53.938 342.612 49 334.295 49 325.459Z" stroke="#212552" stroke-width="6" stroke-miterlimit="10" stroke-linecap="round" stroke-linejoin="round"/>
<path d="M98.6 269.25C114.009 269.25 126.5 244.785 126.5 214.606C126.5 184.427 114.009 159.962 98.6 159.962C83.1913 159.962 70.7 184.427 70.7 214.606C70.7 244.785 83.1913 269.25 98.6 269.25Z" fill="#9FBDCA" stroke="#9FBDCA" stroke-width="6" stroke-miterlimit="10" stroke-linecap="round" stroke-linejoin="round"/>
<path d="M97.6 274.049C102.327 274.049 106.159 270.572 106.159 266.283C106.159 261.994 102.327 258.517 97.6 258.517C92.873 258.517 89.041 261.994 89.041 266.283C89.041 270.572 92.873 274.049 97.6 274.049Z" fill="#9FBDCA" stroke="#9FBDCA" stroke-width="6" stroke-miterlimit="10" stroke-linecap="round" stroke-linejoin="round"/>
<path d="M99.755 263.5C116.188 263.5 129.51 238.652 129.51 208C129.51 177.348 116.188 152.5 99.755 152.5C83.3218 152.5 70 177.348 70 208C70 238.652 83.3218 263.5 99.755 263.5Z" fill="#CBEDF9"/>
<path d="M97.6 254.041C110.523 254.041 121 233.428 121 208C121 182.572 110.523 161.959 97.6 161.959C84.6765 161.959 74.2 182.572 74.2 208C74.2 233.428 84.6765 254.041 97.6 254.041Z" fill="#92D6E9"/>
<g opacity="0.23">
<path d="M71.667 208L115.475 209.667L102.525 263.258L88.143 259.115L70 208" fill="#0A1E2B"/>
<path d="M71.667 208L115.475 209.667L102.525 263.258L88.143 259.115L70 208" stroke="#0A1E2B" stroke-width="6" stroke-miterlimit="10" stroke-linecap="round" stroke-linejoin="round"/>
</g>
<path d="M99.755 263.5C116.188 263.5 129.51 238.652 129.51 208C129.51 177.348 116.188 152.5 99.755 152.5C83.3218 152.5 70 177.348 70 208C70 238.652 83.3218 263.5 99.755 263.5Z" stroke="#212552" stroke-width="6" stroke-miterlimit="10" stroke-linecap="round" stroke-linejoin="round"/>
<path opacity="0.23" d="M49 169.959C44.582 169.959 41 166.377 41 161.959V137.959C41 133.541 44.582 129.959 49 129.959C53.418 129.959 57 133.541 57 137.959V161.959C57 166.377 53.418 169.959 49 169.959ZM49 300.459C44.582 300.459 41 296.877 41 292.459V268.459C41 264.041 44.582 260.459 49 260.459C53.418 260.459 57 264.041 57 268.459V292.459C57 296.877 53.418 300.459 49 300.459Z" fill="#0A1E2B" stroke="#0A1E2B" stroke-width="6" stroke-miterlimit="10" stroke-linecap="round" stroke-linejoin="round"/>
<path d="M49 161.959C44.582 161.959 41 158.377 41 153.959V129.959C41 125.541 44.582 121.959 49 121.959C53.418 121.959 57 125.541 57 129.959V153.959C57 158.377 53.418 161.959 49 161.959ZM49 292.959C44.582 292.959 41 289.377 41 284.959V260.959C41 256.541 44.582 252.959 49 252.959C53.418 252.959 57 256.541 57 260.959V284.959C57 289.377 53.418 292.959 49 292.959Z" fill="#92D6E9"/>
<path d="M49 161.959C44.582 161.959 41 158.377 41 153.959V129.959C41 125.541 44.582 121.959 49 121.959C53.418 121.959 57 125.541 57 129.959V153.959C57 158.377 53.418 161.959 49 161.959ZM49 292.959C44.582 292.959 41 289.377 41 284.959V260.959C41 256.541 44.582 252.959 49 252.959C53.418 252.959 57 256.541 57 260.959V284.959C57 289.377 53.418 292.959 49 292.959Z" stroke="#212552" stroke-width="6" stroke-miterlimit="10" stroke-linecap="round" stroke-linejoin="round"/>
<path d="M381.037 55.292L360.78 52.499" stroke="#212552" stroke-width="6" stroke-miterlimit="10" stroke-linecap="round" stroke-linejoin="round"/>
<path d="M332.896 23.64L329.89 3.414" stroke="#212552" stroke-width="6" stroke-miterlimit="10" stroke-linecap="round" stroke-linejoin="round"/>
<path d="M352.934 30.87L367.393 16.41" stroke="#212552" stroke-width="6" stroke-miterlimit="10" stroke-linecap="round" stroke-linejoin="round"/>
<path d="M94.362 187.462H78.68V228.537H94.361C101.219 228.537 106.798 219.324 106.798 207.999C106.798 196.674 101.219 187.462 94.362 187.462Z" fill="#3CA4B5"/>
<path d="M94.362 187.462H78.68V228.537H94.361C101.219 228.537 106.798 219.324 106.798 207.999C106.798 196.674 101.219 187.462 94.362 187.462Z" stroke="#212552" stroke-width="6" stroke-miterlimit="10" stroke-linecap="round" stroke-linejoin="round"/>
<path d="M94.362 228.538C101.231 228.538 106.799 219.343 106.799 208C106.799 196.657 101.231 187.462 94.362 187.462C87.4932 187.462 81.925 196.657 81.925 208C81.925 219.343 87.4932 228.538 94.362 228.538Z" stroke="#212552" stroke-width="10" stroke-miterlimit="10" stroke-linecap="round" stroke-linejoin="round"/>
<path d="M114 208H93.5" stroke="#212552" stroke-width="9" stroke-miterlimit="10" stroke-linecap="round" stroke-linejoin="round"/>
<path d="M81.925 187.462H94.362V171.389L81.925 187.462Z" stroke="#212552" stroke-width="6" stroke-miterlimit="10" stroke-linecap="round" stroke-linejoin="round"/>
<path d="M81.925 187.462H94.362V171.389L81.925 187.462Z" fill="#212552"/>
<path d="M81.925 228.538H94.362V244.611L81.925 228.538Z" fill="#212552"/>
<path d="M81.925 228.538H94.362V244.611L81.925 228.538Z" stroke="#212552" stroke-width="6" stroke-miterlimit="10" stroke-linecap="round" stroke-linejoin="round"/>
<path d="M78.68 228.538C85.5488 228.538 91.117 219.343 91.117 208C91.117 196.657 85.5488 187.462 78.68 187.462C71.8112 187.462 66.243 196.657 66.243 208C66.243 219.343 71.8112 228.538 78.68 228.538Z" fill="#FFEA9E"/>
<path d="M77.68 218C81.0246 218 83.736 213.523 83.736 208C83.736 202.477 81.0246 198 77.68 198C74.3354 198 71.624 202.477 71.624 208C71.624 213.523 74.3354 218 77.68 218Z" fill="#FFE07D"/>
<path d="M78.68 228.538C85.5488 228.538 91.117 219.343 91.117 208C91.117 196.657 85.5488 187.462 78.68 187.462C71.8112 187.462 66.243 196.657 66.243 208C66.243 219.343 71.8112 228.538 78.68 228.538Z" stroke="#212552" stroke-width="6" stroke-miterlimit="10" stroke-linecap="round" stroke-linejoin="round"/>
<path d="M188.276 342.604L168 344.585V70.333L188.276 72.314C194.776 72.949 200 78.785 200 85.356V329.564C200 336.133 194.776 341.969 188.276 342.604Z" fill="#CBEDF9"/>
<path opacity="0.23" d="M200.643 174.601V146.005H178.327V176.305H178.471C178.471 182.467 183.466 187.463 189.629 187.463C195.791 187.463 200.787 182.467 200.787 176.305C200.787 175.724 200.729 175.158 200.643 174.601Z" fill="#0A1E2B" stroke="#0A1E2B" stroke-width="6" stroke-miterlimit="10" stroke-linecap="round" stroke-linejoin="round"/>
<path d="M200 85.35V329.56C200 334.68 196.929 339.35 192.599 341.46C191.369 342.06 190.041 342.46 188.647 342.6L169 344.59V70.33L188.646 72.31C190.041 72.45 191.388 72.85 192.618 73.46C196.939 75.58 200 80.24 200 85.35Z" stroke="#212552" stroke-width="6" stroke-miterlimit="10" stroke-linecap="round" stroke-linejoin="round"/>
<path d="M288.259 312.096L312.504 336.573" stroke="#212552" stroke-width="6" stroke-miterlimit="10" stroke-linecap="round" stroke-linejoin="round"/>
<path d="M189.932 132.801C183.77 132.801 178.774 137.796 178.774 143.959C178.774 150.121 183.77 155.117 189.932 155.117H200.787V132.802H189.932V132.801Z" fill="#92D6E9"/>
<path d="M189.932 132.801C183.77 132.801 178.774 137.796 178.774 143.959C178.774 150.121 183.77 155.117 189.932 155.117H200.787V132.802H189.932V132.801Z" stroke="#212552" stroke-width="6" stroke-miterlimit="10" stroke-linecap="round" stroke-linejoin="round"/>
<path d="M200.787 155.117C206.949 155.117 211.945 150.121 211.945 143.959C211.945 137.797 206.949 132.801 200.787 132.801C194.625 132.801 189.629 137.797 189.629 143.959C189.629 150.121 194.625 155.117 200.787 155.117Z" fill="#CBEDF9"/>
<path d="M200.787 155.117C206.949 155.117 211.945 150.121 211.945 143.959C211.945 137.797 206.949 132.801 200.787 132.801C194.625 132.801 189.629 137.797 189.629 143.959C189.629 150.121 194.625 155.117 200.787 155.117Z" stroke="#212552" stroke-width="6" stroke-miterlimit="10" stroke-linecap="round" stroke-linejoin="round"/>
<path d="M200.787 155.117C206.949 155.117 211.945 150.121 211.945 143.959C211.945 137.797 206.949 132.801 200.787 132.801C194.625 132.801 189.629 137.797 189.629 143.959C189.629 150.121 194.625 155.117 200.787 155.117Z" stroke="#212552" stroke-width="6" stroke-miterlimit="10" stroke-linecap="round" stroke-linejoin="round"/>
<path opacity="0.23" d="M200.643 302.258V273.662H178.327V303.962H178.471C178.471 310.124 183.466 315.12 189.629 315.12C195.791 315.12 200.787 310.124 200.787 303.962C200.787 303.381 200.729 302.815 200.643 302.258Z" fill="#0A1E2B" stroke="#0A1E2B" stroke-width="6" stroke-miterlimit="10" stroke-linecap="round" stroke-linejoin="round"/>
<path d="M189.932 260.459C183.77 260.459 178.774 265.454 178.774 271.617C178.774 277.78 183.77 282.775 189.932 282.775H200.787V260.46H189.932V260.459Z" fill="#92D6E9"/>
<path d="M189.932 260.459C183.77 260.459 178.774 265.454 178.774 271.617C178.774 277.78 183.77 282.775 189.932 282.775H200.787V260.46H189.932V260.459Z" stroke="#212552" stroke-width="6" stroke-miterlimit="10" stroke-linecap="round" stroke-linejoin="round"/>
<path d="M200.787 282.775C206.949 282.775 211.945 277.779 211.945 271.617C211.945 265.455 206.949 260.459 200.787 260.459C194.625 260.459 189.629 265.455 189.629 271.617C189.629 277.779 194.625 282.775 200.787 282.775Z" fill="#CBEDF9"/>
<path d="M200.787 282.775C206.949 282.775 211.945 277.779 211.945 271.617C211.945 265.455 206.949 260.459 200.787 260.459C194.625 260.459 189.629 265.455 189.629 271.617C189.629 277.779 194.625 282.775 200.787 282.775Z" stroke="#212552" stroke-width="6" stroke-miterlimit="10" stroke-linecap="round" stroke-linejoin="round"/>
<path d="M134 280.258C131.791 280.258 130 278.467 130 276.258V134.258C130 132.049 131.791 130.258 134 130.258H142.157V121.258H133C126.373 121.258 121 126.631 121 133.258V277.258C121 283.885 126.373 289.258 133 289.258H142.158V280.258H134Z" fill="#92D6E9"/>
<path d="M143.5 294.666C146.111 294.666 148.227 289.928 148.227 284.083C148.227 278.238 146.111 273.5 143.5 273.5C140.889 273.5 138.773 278.238 138.773 284.083C138.773 289.928 140.889 294.666 143.5 294.666Z" fill="#212552"/>
<path d="M134 280.258C131.791 280.258 130 278.467 130 276.258V134.258C130 132.049 131.791 130.258 134 130.258H142.157V121.258H133C126.373 121.258 121 126.631 121 133.258V277.258C121 283.885 126.373 289.258 133 289.258H142.158V280.258H134Z" stroke="#212552" stroke-width="6" stroke-miterlimit="10" stroke-linecap="round" stroke-linejoin="round"/>
<path d="M313 377.459H53C30.909 377.459 13 359.55 13 337.459V77.459C13 55.368 30.909 37.459 53 37.459H313C335.091 37.459 353 55.368 353 77.459V337.459C353 359.55 335.091 377.459 313 377.459Z" stroke="#212552" stroke-width="6" stroke-miterlimit="10" stroke-linecap="round" stroke-linejoin="round"/>
<path opacity="0.23" d="M142.524 134.5L143.5 312.096" stroke="#0A1E2B" stroke-width="8" stroke-miterlimit="10" stroke-linecap="round" stroke-linejoin="round"/>
<path d="M141.583 51.654L157.089 51.195" stroke="#212552" stroke-width="6" stroke-miterlimit="10" stroke-linecap="round" stroke-linejoin="round"/>
<path d="M143.012 363.236L157.345 363.621" stroke="#212552" stroke-width="6" stroke-miterlimit="10" stroke-linecap="round" stroke-linejoin="round"/>
</svg>
